<svg width="100" height="101" viewBox="0 0 100 101" fill="none" xmlns="http://www.w3.org/2000/svg">
<path opacity="0.5" d="M77.067 18.7928L61.388 74.3364C61.3082 74.5885 60.9893 74.6642 60.8033 74.4877L50.3064 64.5287L58.1724 36.6938C58.2522 36.4417 58.013 36.2148 57.7472 36.2904L28.4089 43.7534L17.9651 33.8448C17.7791 33.6683 17.8588 33.3657 18.1245 33.2901L76.6418 18.3894C76.9075 18.339 77.1467 18.5659 77.067 18.7928Z" fill="#00B37E"/>
<path opacity="0.5" d="M50.3058 64.5282L46.2665 78.8994C46.1868 79.1516 45.8679 79.2272 45.6818 79.0507L13.1014 48.1651C12.9154 47.9886 12.9951 47.6861 13.2608 47.6104L28.4084 43.7529L50.3058 64.5282Z" fill="#00B37E"/>
<path d="M58.1711 36.6933L50.305 64.5282L28.4076 43.7529L57.7459 36.2899C58.0117 36.2143 58.2508 36.4412 58.1711 36.6933Z" fill="#00B37E"/>
</svg>
